<svg id="Capa_1" enable-background="new 0 0 481 481" height="512" viewBox="0 0 481 481" width="512" xmlns="http://www.w3.org/2000/svg"><g><g><path d="m190.518 134c-34.803 0-63.016 13.161-63.016 29.395v16.105c0 25.129 43.671 45.5 97.542 45.5h15.456l23-45-23-46z" fill="#ffe79b"/><path d="m290.485 134h-49.985v91h15.459c53.871 0 97.542-20.371 97.542-45.5v-16.105c0-16.234-28.213-29.395-63.016-29.395z" fill="#ffb555"/></g><path d="m240.5 82-41-9-40.435 9-11.565 30 51 9 42-9 11-14z" fill="#bb5f19"/><path d="m240.5 82v30l43 9 50-9-11.565-30-38.435-8z" fill="#8e4813"/><path d="m188.75 5-29.685 77h81.435l10-28-10-30z" fill="#ff7037"/><path d="m292.25 5-51.75 19v58h81.435z" fill="#dd425c"/><path d="m147.5 112-59.5 44 12.5 11h140l13-29-13-26z" fill="#ff7037"/><path d="m393 156-59.5-44h-93v55h140z" fill="#dd425c"/><g><path d="m62.558 126-.058 333h178l25-114-25-131z" fill="#f9f9f9"/><path d="m418.442 126-177.942 88v245h178z" fill="#e3e3ff"/></g><path d="m41.601 290h21.236c17.162 0 31.075 13.913 31.075 31.075v9.849c0 17.162-13.913 31.075-31.075 31.075h-21.236c-5.434 0-9.84-4.405-9.84-9.84v-52.32c0-5.434 4.405-9.839 9.84-9.839z" fill="#ffe79b"/><path d="m439.66 290h-21.236c-17.163 0-31.075 13.913-31.075 31.075v9.849c0 17.162 13.913 31.075 31.075 31.075h21.236c5.434 0 9.84-4.405 9.84-9.84v-52.32c0-5.434-4.406-9.839-9.84-9.839z" fill="#ffb555"/><g><path d="m0 446v30h240.5l25-14-25-16z" fill="#bb5f19"/><path d="m240.5 446h240.5v30h-240.5z" fill="#8e4813"/></g></g></svg>